<svg width="57" height="16" viewBox="0 0 57 16" fill="none" xmlns="http://www.w3.org/2000/svg">
<rect width="16" height="16" rx="2.15959" fill="#E95464"/>
<path d="M11.0665 2.45144C11.0347 2.38974 10.9522 2.35756 10.885 2.40715L5.57152 6.30965C5.36469 6.46145 5.29002 6.73022 5.37253 6.96303C5.3968 7.03117 5.43712 7.0925 5.48528 7.14625L6.0621 7.79131C6.37609 8.14222 6.52655 8.50715 6.44068 8.99018C6.31 9.72382 5.96839 10.4503 5.71713 11.1517C5.50133 11.754 5.28516 12.3563 5.06937 12.9585C5.02793 13.0736 4.98313 13.1883 4.94542 13.3049C4.93123 13.3416 4.93496 13.3772 4.9499 13.4064C4.98163 13.4681 5.06377 13.5003 5.13135 13.4507L10.4448 9.54817C10.6517 9.39637 10.7263 9.1276 10.6438 8.89479C10.6196 8.82665 10.5792 8.76532 10.5311 8.71157L9.95425 8.06651C9.77205 7.86285 9.59359 7.69591 9.53834 7.41124C9.48719 7.1489 9.54543 6.8771 9.62906 6.62347C10.0319 5.40415 10.481 4.19922 10.9145 2.99012C10.9668 2.84438 11.019 2.69902 11.0709 2.55327C11.0851 2.51655 11.0814 2.48097 11.0665 2.45182V2.45144Z" fill="white"/>
<path d="M20.7017 14.7123V1.08813H29.5534V3.15703H23.2047V6.85577H28.9462V8.92466H23.2047V14.7123H20.7017Z" fill="white"/>
<path d="M36.9216 10.4148V4.49417H39.3639V14.7123H36.9958V12.8961H36.8878C36.6539 13.4683 36.2694 13.9361 35.7341 14.2998C35.2034 14.6635 34.549 14.8453 33.7708 14.8453C33.0917 14.8453 32.4912 14.6967 31.9695 14.3996C31.4522 14.098 31.0474 13.6612 30.755 13.0891C30.4627 12.5125 30.3165 11.8162 30.3165 11.0002V4.49417H32.7588V10.6277C32.7588 11.2752 32.9387 11.7896 33.2986 12.171C33.6584 12.5524 34.1307 12.7431 34.7154 12.7431C35.0752 12.7431 35.4238 12.6567 35.7611 12.4837C36.0985 12.3107 36.3751 12.0535 36.591 11.712C36.8114 11.3661 36.9216 10.9337 36.9216 10.4148Z" fill="white"/>
<path d="M41.1154 14.7123V4.49417H43.4835V6.19718H43.5915C43.7804 5.60733 44.1042 5.15275 44.563 4.83344C45.0263 4.50969 45.5548 4.34781 46.1485 4.34781C46.2834 4.34781 46.4341 4.35446 46.6005 4.36777C46.7714 4.37664 46.9131 4.39216 47.0256 4.41434V6.62959C46.9221 6.59411 46.7579 6.56306 46.533 6.53645C46.3127 6.50541 46.099 6.48989 45.8921 6.48989C45.4468 6.48989 45.0465 6.58524 44.6912 6.77594C44.3404 6.96221 44.0637 7.22165 43.8613 7.55427C43.6589 7.88689 43.5577 8.27051 43.5577 8.70514V14.7123H41.1154Z" fill="white"/>
<path d="M51.9818 14.9118C50.9698 14.9118 50.0927 14.6923 49.3506 14.2532C48.6084 13.8142 48.0327 13.1999 47.6234 12.4105C47.2186 11.6211 47.0162 10.6986 47.0162 9.64312C47.0162 8.58761 47.2186 7.66293 47.6234 6.86907C48.0327 6.07522 48.6084 5.45876 49.3506 5.01971C50.0927 4.58065 50.9698 4.36112 51.9818 4.36112C52.9938 4.36112 53.8709 4.58065 54.613 5.01971C55.3552 5.45876 55.9286 6.07522 56.3334 6.86907C56.7427 7.66293 56.9474 8.58761 56.9474 9.64312C56.9474 10.6986 56.7427 11.6211 56.3334 12.4105C55.9286 13.1999 55.3552 13.8142 54.613 14.2532C53.8709 14.6923 52.9938 14.9118 51.9818 14.9118ZM51.9953 12.9826C52.544 12.9826 53.0028 12.8341 53.3716 12.5369C53.7404 12.2353 54.0148 11.8318 54.1947 11.3262C54.3791 10.8206 54.4713 10.2574 54.4713 9.63647C54.4713 9.01115 54.3791 8.44569 54.1947 7.94011C54.0148 7.43009 53.7404 7.0243 53.3716 6.72272C53.0028 6.42114 52.544 6.27036 51.9953 6.27036C51.433 6.27036 50.9653 6.42114 50.592 6.72272C50.2231 7.0243 49.9465 7.43009 49.7621 7.94011C49.5822 8.44569 49.4922 9.01115 49.4922 9.63647C49.4922 10.2574 49.5822 10.8206 49.7621 11.3262C49.9465 11.8318 50.2231 12.2353 50.592 12.5369C50.9653 12.8341 51.433 12.9826 51.9953 12.9826Z" fill="white"/>
</svg>
